<mxfile host="app.diagrams.net" modified="2023-05-18T19:18:18.260Z" agent="Mozilla/5.0 (Windows NT 10.0; Win64; x64) AppleWebKit/537.36 (KHTML, like Gecko) Chrome/113.0.0.0 Safari/537.36" etag="9V5oUIz6GZauvW20ui71" version="21.3.2" type="device">
  <diagram name="PÃ¡gina-1" id="F2cPcP4VFAb-MnGk36TN">
    <mxGraphModel dx="1434" dy="707" grid="1" gridSize="10" guides="1" tooltips="1" connect="1" arrows="1" fold="1" page="1" pageScale="1" pageWidth="827" pageHeight="1169" math="0" shadow="0">
      <root>
        <mxCell id="0" />
        <mxCell id="1" parent="0" />
        <mxCell id="2aw78a-muhKt6A3NKjzl-2" value="" style="rounded=1;whiteSpace=wrap;html=1;gradientColor=none;glass=0;shadow=0;" parent="1" vertex="1">
          <mxGeometry x="110" y="60" width="250" height="290" as="geometry" />
        </mxCell>
        <mxCell id="2aw78a-muhKt6A3NKjzl-3" value="ligado" style="text;html=1;strokeColor=none;fillColor=none;align=center;verticalAlign=middle;whiteSpace=wrap;rounded=0;fontSize=14;" parent="1" vertex="1">
          <mxGeometry x="209" y="70" width="60" height="30" as="geometry" />
        </mxCell>
        <mxCell id="2aw78a-muhKt6A3NKjzl-4" value="pessoa" style="text;html=1;strokeColor=none;fillColor=none;align=center;verticalAlign=middle;whiteSpace=wrap;rounded=0;fontSize=14;" parent="1" vertex="1">
          <mxGeometry x="194" y="93" width="80" height="30" as="geometry" />
        </mxCell>
        <mxCell id="2aw78a-muhKt6A3NKjzl-5" value="local" style="text;html=1;strokeColor=none;fillColor=none;align=center;verticalAlign=middle;whiteSpace=wrap;rounded=0;fontSize=14;" parent="1" vertex="1">
          <mxGeometry x="209" y="116" width="60" height="30" as="geometry" />
        </mxCell>
        <mxCell id="2aw78a-muhKt6A3NKjzl-6" value="true" style="rounded=0;whiteSpace=wrap;html=1;" parent="1" vertex="1">
          <mxGeometry x="267" y="70" width="70" height="20" as="geometry" />
        </mxCell>
        <mxCell id="2aw78a-muhKt6A3NKjzl-7" value="&quot;Joao&quot;" style="rounded=0;whiteSpace=wrap;html=1;" parent="1" vertex="1">
          <mxGeometry x="267" y="96" width="70" height="20" as="geometry" />
        </mxCell>
        <mxCell id="2aw78a-muhKt6A3NKjzl-8" value="&quot;Entrada&quot;" style="rounded=0;whiteSpace=wrap;html=1;" parent="1" vertex="1">
          <mxGeometry x="267" y="123" width="70" height="20" as="geometry" />
        </mxCell>
        <mxCell id="2aw78a-muhKt6A3NKjzl-12" value="" style="rounded=0;whiteSpace=wrap;html=1;" parent="1" vertex="1">
          <mxGeometry x="124" y="154" width="220" height="66" as="geometry" />
        </mxCell>
        <mxCell id="2aw78a-muhKt6A3NKjzl-13" value="" style="ellipse;whiteSpace=wrap;html=1;aspect=fixed;" parent="1" vertex="1">
          <mxGeometry x="134" y="164" width="20" height="20" as="geometry" />
        </mxCell>
        <mxCell id="2aw78a-muhKt6A3NKjzl-14" value="ligar()" style="text;html=1;strokeColor=none;fillColor=none;align=center;verticalAlign=middle;whiteSpace=wrap;rounded=0;fontSize=14;" parent="1" vertex="1">
          <mxGeometry x="156" y="159" width="48" height="30" as="geometry" />
        </mxCell>
        <mxCell id="2aw78a-muhKt6A3NKjzl-15" value="" style="ellipse;whiteSpace=wrap;html=1;aspect=fixed;" parent="1" vertex="1">
          <mxGeometry x="134" y="189" width="20" height="20" as="geometry" />
        </mxCell>
        <mxCell id="2aw78a-muhKt6A3NKjzl-16" value="desligar()" style="text;html=1;strokeColor=none;fillColor=none;align=center;verticalAlign=middle;whiteSpace=wrap;rounded=0;fontSize=14;" parent="1" vertex="1">
          <mxGeometry x="165" y="184" width="48" height="30" as="geometry" />
        </mxCell>
        <mxCell id="2aw78a-muhKt6A3NKjzl-24" value="" style="shape=image;verticalLabelPosition=bottom;labelBackgroundColor=default;verticalAlign=top;aspect=fixed;imageAspect=0;image=data:image/png,iVBORw0KGgoAAAANSUhEUgAAAE8AAABsCAYAAAArDO8eAAAJI0lEQVR4nO2deUwT7RaHW8sisihLFCQqIEZZgyKLSwQJxg2JaIwLMcSILGpckeCSiBA0Ro2AisaFEDVxRUzccCMqizEqoBgF4gKIAqKAFqSFdn73j3v94ndbyjudmc4M8CTzD8y87+nTIe05PZxKAUAygF4M4jsAMTMgjwED8hgwII8BA/IYMCBPBwAkut6MDMjTQnNzs2Tjxo0SJycnydixYyXJycnaJWKAf6AoCjk5ObC1tYVEIvnXsXfvXo3zB+T9j+rqaoSEhGhI+3P4+PhoXNPv/2y7urokaWlpEi8vL0lBQUGP53V2dmr+kIcnWTAUFxfDw8Ojx7vt7yM9PV3j+n4pr62tDfHx8ZBKpb1Kk8lk2L59O1QqlcY6/UoeRVG4evUqHBwciO42X19flJaW9rhev5FXV1eH8PBwImnm5uZIT0/Xerf9TZ+Xp1KpkJGRAQsLCyJxYWFhqK2tJVq7T8srLy+Hn58fkTR7e3tcuXIFFEURr98n5XV0dGDbtm2QyWRE4uLi4tDa2kp7nz4nLz8/H87OzkTS3N3dUVhYqPdefUZeU1MTVqxYQSTN1NQUqampUCqVjPYUvTyKopCdnQ1ra2siccHBwaiqqmJlb1HLq6qqQnBwMJE0GxsbZGdn03pB6A1RylMqlUhJSYGpqSmRuMjISDQ1NbEeh+jkFRUVwd3dnUias7Mz8vPzOYtFNPJaW1sRGxtLJE0mkyExMREdHR2cxiR4eRRF4fLly7C3tycS5+fnh/LycoPEJmh5tbW1CAsLI5JmYWGBjIyMXvNRNhGkPJVKhcOHD8Pc3JxIXHh4OOrq6gwep+DklZaWwtfXl0iag4MDcnNzWX37QQfByGtvb8fWrVuJ8lGpVIq1a9eira2N15gFIe/27dsYM2YM0d3m4eGBkpISvkMGwLO8xsZGLFu2jDgfTUtLY5yPsgkv8tRqNU6dOoVhw4YRiQsJCUF1dTUfoerE4PLevXuHGTNmEEmztbVFTk4Oby8IvWEweQqFAsnJyTAxMSESt3LlSnz79s1Q4emFQeQ9efIEEyZMIJLm4uKC+/fvGyIsxnAqr6WlBWvWrCGSZmRkhKSkJM7zUTp0dnZCoVD0+HtO5FEUhYsXL2LEiBFE4gICAvDq1SsuQtGL6upqREREwMzMDObm5li9ejW6u7s1zmNdXk1NDebNm0ckzdLSEkeOHDFoPqoLpVKJ1NRUrXXChIQEjfNZk9fd3Y1Dhw5hyJAhROIiIiLw+fNntrZnTHFxsc46oaenp8Y1rMh78eIFJk2aRCRt5MiRuHbtGhvbskJrayvi4uJ6jdvb21vjWkby5HI5Nm/ejEGDBhHlo+vXr8fPnz+ZbMkadPtWcnJyNNbQW97NmzcxevRooo29vLzw9OlTRg+WTerq6rBgwQKi2C0sLJCVlaX1jTpteUqlElFRUUQbDx48GPv27UNXVxcrD5opKpUK6enprNUJacs7ceIE0cahoaF4//49owfLJmVlZZg8eTJR7KR1QtryestL7ezscPbsWcHko+3t7cR9K1KpFPHx8cR1QtrylixZ0uPmUVFRaG5upv0AueLOnTtwcnIiuts8PDxQXFxMa33a8h4/fqyR3Lu6uuLBgwd0l+KMxsZGLF++nEgakzqhXq+2Dx8+RGRkJGbPno3MzEz8/v1bn2VYh6IonD59mrhvZebMmYzqhIIow7NBZWUlgoKCiKSxVScUvTyFQoE9e/bwUicUtbzCwkK4ubkRSXNxccG9e/dY3V+U8lpaWhATE0MkTSaTcVYnFJU8iqJw6dIlwdQJRSOvpqYG8+fPJ5JmqDqh4OXRrRMuXLjQYHVCQct7+fKloOuEgpQnl8uxZcsW4jrhunXreKkTCk7erVu3iPtWPD09ea0TCkZeQ0MDli5dSiRNKHVC3uWp1WqcPHmSuG9FSHVCXuW9ffsW06dPJ85HhVQnBHiSp1AosHv3bhgbGxOJE1qd8A8Gl/fo0SOMHz+eSBrfdcKGhgad//xiMHktLS2Ijo4mkmZkZIQdO3bwVicsKSlBYGDgP2+F5s6dqzUWzuVRFIULFy5g+PDhROICAwNRUVHBdVha0TW4ISYmRuN8TuV9/PgRc+bMIZJmZWWFY8eOQa1WcxmSViiKQm5urs4PwN3c3DSu40Red3c3Dhw4QJyPLlq0CPX19VyE0iukgxsCAgI0rmVd3vPnzzFx4kQiaY6Ojrh+/TrbIRChUqmQmZlJPLghLy9PYw3W5MnlcmzatIk4H92wYQN+/frF1va0KC8vh7+/P5E0e3v7HgsOrMi7ceMGRo0aRRSMt7c3nj17xsa2tOno6EBiYiLx4IbY2FidgxsYyfv69avOD8H/PszMzLB//37e8tG7d+8SD25wc3MjGtyglzy1Wo3jx49j6NChRMHMmjULHz580GcrxjQ1NSEyMpIoThMTE6SkpOjsQ/4b2vLkcjlCQ0OJgrGzs8P58+d5yUf/DG6wsbEhijUoKAiVlZW09qAt7+DBg0TBrFq1Ct+/f6e7PCvQGdxgbW2NM2fO6PUE05bXWxVk3LhxKCgooB0IG+hqyNZ2MB3cQFteT4NfjI2NsWvXLnR2duodDBP4GNxAW97r169haWn5r2CmTp2KN2/eMA5GH0gbsiUS9gc36PVqW1FRgaSkJERHRyMvL4+3fJTu4IaysjJWY+C9DK8PQhncICp5QhvcIBp5paWlrDdkM0Xw8trb25GQkCDIwQ2Clsd1QzZTBCnPUA3ZTBGUPLoN2XwPbhCMPD4aspnCuzw+G7KZwqs8sQ9u4EWe2Ac3/MGg8sQ+uOH/MZg8uoMbjh49KpjBDT3BuTyxD27QBafy6DRkOzo6av1gWchwIo9uQ7aQBjfQgXV5dBqyhTa4gS6syRNjQzZTGMsTc0M2UxjJo9OQbWdnh3PnzvGej7KJXvL6SkM2U2jL+/HjB3x8fIik8d2QzTW05SUnJxPlozt37hTM4AauoC1v2rRpOsVNmTKFt4ZsQ0P7izJdXV21/tzKykqSlZUlKSoqknh6etJdVpzQtf3p0yeNfwtYvHgxvnz5wsWTK2ikgI7vXe6B+vp6SV5enqS5uVkSFhYm8ff3Z/1JFQN6yRvgv/T7Lwdmwn8A+q4/AD/ZIyUAAAAASUVORK5CYII=;" parent="1" vertex="1">
          <mxGeometry x="113.52" y="88" width="20.48" height="28" as="geometry" />
        </mxCell>
        <mxCell id="2aw78a-muhKt6A3NKjzl-25" value="" style="shape=image;verticalLabelPosition=bottom;labelBackgroundColor=default;verticalAlign=top;aspect=fixed;imageAspect=0;image=data:image/png,iVBORw0KGgoAAAANSUhEUgAAALoAAAEcCAYAAABwPK62AAAgAElEQVR4nO2daVQUx9rHn2ETWRURNfCiETCKxoWIcUEFF0QWFwg5xkSDGjWaHBO8uSbXm1VD4k1uFPWqMfEoalRUUAFF3BBvVFAEXIKKC6CALIrsy8BM1/uB5Gahapxherq6p+t3jl+qiq6/1f+uebqqukqBEELAYBg5JrQFGBus3xAnzOg8UlRUBMHBwbRlMDAwo/MAx3GwefNm8PT0hOTkZNpyGBjMaAuQOvfv34eIiAg4f/48bSkMDbAeXQ9++uknGDZsGDO5BGA9egeora2FpUuXwp49e2hLYWgJM7qOZGRkwOzZs6GgoIC2FIYOsNBFS9RqNURFRYGPjw8zuQRhPboWlJeXw6xZsyAtLU1jOUtLS/j2228FUsXQBWb0Z3D58mUIDQ2FkpISjeVefPFFiI2NBU9PT4GUMXSBhS4a2L59O4wdO/aZJl+2bBlcvnyZmVzEsB4dQ0tLC0RGRsLmzZs1luvevTvs2LEDgoKCBFLG6CjM6H+hrKwMwsPDnzk2PnnyZNi5cyf06tVLIGUMfWChyx/IzMyE4cOHazS5QqGA1atXQ0pKCjO5hGA9+q8cPXoUXn31VWhqaiKWsbe3h71790JgYKCAyhh8wHp0ANi6dStMnz5do8k9PT0hMzOTmVyiyNroCCH4+OOP4e233waO44jlQkNDISMjAzw8PARUx+AT2Rq9tbUV5s2bB1FRUcQyCoUCoqKiIC4uDmxtbQVUx+AbWcbodXV1EBYWBqdOnSKWsbKygtjYWAgJCRFQGcNQyM7ojx8/hilTpkBOTg6xTPfu3eHo0aMwYsQIAZUxDImsjF5aWgqTJk2CmzdvEsu4u7tDSkoKuLm5CaiMYWhkE6MXFRXB+PHjNZr85ZdfhosXLzKTGyGyMHphYSGMGzcO7t69Sywzbdo0SE1Nhe7duwuojCEURm/0wsJC8PX1hcLCQmKZxYsXQ3x8PFhZWQmojCEkRm3030z+4MEDYpkPPvgAtmzZAmZmsnpdkR1Ga/Ti4uJnmvzTTz+Fb775BhQKhYDKGDQwym6ssrIS/P39NZo8KioKVq5cKaAqBk2Mzuj19fUQGBgIt27dIpZZs2YNfPjhhwKqYtDGqIyuVCph5syZcPnyZWKZf/3rX7BixQoBVTHEgNHE6Gq1Gt544w04ffo0sczXX3/NTC5TjMLoCCFYunQpxMXFEcusWLECPvroIwFVMcSEURj9008/hR9++IGYv2DBAlizZo2AihhiQyH1gwB2794Nc+fOJebPnDkTDhw4wMbJZY6kjZ6eng6+vr7Q0tKCzffz84Pk5GSwtLQUWBlDbEjW6A8fPgRvb2+oqKjA5r/00kuQmpoKdnZ2AitjiBFJGr2+vh58fHzg2rVr2Hw3NzdIT09nC7QY/0NyL6Mcx8GcOXOIJrezs4OkpCRmcsafkJzRP/nkEzhy5Ag2z8TEBPbv3w8DBgwQWBVD7EjK6IcPH4avvvqKmL927VoICAgQUJFxwHGcxnY1CpBEyM/PR/b29ggAsP8WLVqEOI6jLVNyNDY2ohkzZiAJWaFDSOJltKWlBXx8fCAzMxOb7+vrCydPngRzc3OBlUmbp0+fwrRp0+DChQsAYNxnpEpiFmXFihVEk/ft2xfi4uKYyXWkqKgIAgICNH5Da0yIvkc/fPgwhIaGYvMsLCwgPT0dvLy8BFYlbXJzcyEgIACKi4v/lC5yK+iFqF9GCwoKYN68ecT8devWMZPryPnz58HHx6edyY0d0fbora2tMGbMGGLIEh4eDvv372efwenAiRMnYMaMGdDc3IzNF6kVeEG0PXpUVBTR5G5ubvDjjz8yk+tAQkICTJs2jWhyo4faeI8GsrKykJmZGXYY0cLCAmVlZdGWKCliY2OJ7fnbv3//+9+0ZRoU0Rm9ubkZDRo0iHhDNm3aRFuipIiJiUEmJibE9jQzM0M//fQTbZkGR3RGX7lyJfGmhISEsEkhHfj+++819uKdO3dGKSkptGUKgqiMfunSJWLv4+DggEpLS2lLlAw7duzQaHIbGxt07tw52jIFQzRGb2pqQv379yfemH379tGWKBlOnjypMSa3t7dH6enptGUKimiMvmLFCuKNeeWVV1jIoiXXrl1Dtra2xLbs1q2bLF/mRTGOnpubC0OHDgWVStUur3v37pCbm8vWl2tBcXExjBw5knjSdY8ePeD06dMwaNAggZXRh/paF4QQvPPOO1iTAwBs2bKFmVwLampqIDAwkGhyBwcHSEtLg/79+wusTCRQ/kVBe/bsIf7Mzpo1i7Y8SaBUKtGkSZOI7dipUyf0888/05ZJFapGr6mpQT179sTeHDs7O1RWVkZTniTgOA69+eabGkdYDhw4QFsmdaga/f333yfenA0bNtCUJhk+++wzWc94ags1o1+7dg2Zmppib87QoUNRa2srLWmSYfv27RpN/u6777LRql+hYnSO49C4ceOIN+jChQs0ZEmKEydOaBwrnz59OlKpVLRligYqRk9MTCTeoHnz5tGQJCmuXbuGbGxsiG04YsQI1NDQQFumqBB8HF2tVsOQIUMgNze3XV6XLl0gLy8PnJychJQkKRoaGsDLywvu3LmDze/bty+kp6ezNvwLgq9H3717N9bkAACrV69mN+gZLF++nGhyBwcHOH78OGtDDIL26M3NzdCvXz8oKipql+fm5ga3bt1iHzlrICEhAWbMmIHN69SpE5w5cwbGjBkjsCppIGiPvmnTJqzJAQC+/PJLZnINlJaWwoIFC4j5MTExzOSaEOploKqqCjk4OGBfnry8vJBarRZKiuRQq9XI39+f+PK5YMEC2hJFj2BG1/RBxcmTJ4WSIUmio6OJbefu7o7q6upoSxQ9gsTo1dXV4OrqCnV1de3yJk6cqPGALblz48YN8Pb2BqVS2S7P1NQULl68CCNGjKCgTFoIEqNv2rQJa3IAYGcLaaC5uRlmz56NNTkAwOeff85M/gc09tmG/sloaGhAjo6O2J/d0NBQQ1cvaTStBfLx8WEzn3+A4zj097//nZhvcKNv2LCBeLPk+KWLtpw4cYLYbnZ2dqigoIC2RNGgUqnQokWLkKZ+26BGb2lpQa6urtib5e/vb8iqJc3jx4+Jy5cBQBbbU2hLS0sLmjVr1v/ahoRBjR4TE0O8WWfPnjVk1ZJmzpw5xHZ77bXXaMsTDa2trWj69Ol/ah8SBjO6Wq1GAwYMwN6sUaNGseWjBDIzM4kmd3V1RVVVVbQligKO49CCBQvatREJgxk9OTmZeMMSExMNVa2k4TgOjR07FttmCoVCVvuwPItPPvkE204kDGb04OBgrJBBgwaxWVACcXFxxM4hMjKStjzRsHnzZmI7kTCI0QsKCpBCocAK2blzpyGqlDzNzc2ob9++2Dbr1q0bC1l+JT4+nugtTUY3yITR1q1bsYP3jo6O8OqrrxqiSsmzceNGyM/Px+Z98cUX0KVLF4EViY///ve/MHv2bOLE0PDhw8l/zPcT19zcTJwg+vDDD/muziioqKhAdnZ22DYbMGAA+34WIXT9+nWNpxK6u7uj8vJy4t/zbvSffvqJ+DKVn5/Pd3VGwdKlS4k38NixY7TlUefBgwfI2dmZ2EZOTk7o/v37Gq/Bu9FHjx6NFRMUFMR3VUZBbm4ucTcEf39/2Q/D1tTUEIepAdp2BdZmhp1Xo1+/fp31TDoydepUbHuZmJigGzdu0JZHFY7j0Ouvv070lLm5udZLvHk1OmlH3Oeff54tQMKQkpJCvImLFy+mLY86O3fuJLYPAKC9e/dqfS3ejK5Wq5GLiwtW0FdffcVXNUZDa2srGjhwILa9bG1tZb8dX15eHrK2tiaafO3atTpdjzejnz17lvgS+vDhQ76qMRr2799PvIlr1qyhLY8qSqUSeXl5EdtnyZIlOl+TN6O/9dZbWFG+vr58VWFUkF7a+/Tpg5qammjLo8ry5cuJJn/xxRc71D68GL2pqYk4xvnjjz/yUYVRcfnyZV7iTmNE0xqpzp07o5s3b3bourwYPT4+HivMwsKCTV1jII0k9OnTR9Yv7aWlpah79+5Eo+vTafJi9NDQUKww9qlce0pKSpC5uTm2veS8xbNarUaTJ08mmjw8PFyvOQW9jd7Q0IAsLS2x4uLj4/W9vNHx8ccfY9vK2tpa1r9+GzduJJq8d+/eereN3kZPSEjAirO3t5f9S9VfaWpqIq4Deuedd2jLo8bjx49Rly5dsO1iamrKyzbieq9eTEpKwqYHBQWBpaWlvpc3Kvbu3QtPnjzB5i1btkxgNeLhs88+g+rqamzeF198AaNHj9a/En2eErVajXr06IF9EmNjY/V+Co0JjuPQ4MGDsW0VGBhIWx41rl+/TjwtnM8tPfQy+qVLl7ACzczMUHV1NS8CjYXU1FRiDCrXLfk4jkN+fn7YNjExMUE5OTm81aVX6JKYmIhNHzduHNjb2+tzaaNj/fr12HRPT0+YNGmSwGrEweHDh+Hs2bPYvIULF8LQoUP5q0yfp4T0UxwdHc3Xg2gU3Lt3j/j519atW2nLo0JTUxPq06cPcSCjoqKC1/o63KMXFRXB9evXsXkhISEdvaxRsm3bNuznXw4ODvDGG29QUESftWvXQmFhITbviy++4P+08I4+IaTNiTw9PXl8DqUPx3HIw8MD21YfffQRbXlUKC4uJq5M7N+/P2ppaeG9zg736OfOncOmBwQEdPSSRsnNmzfh7t272Ly3335bYDXi4LPPPoOGhgZsXnR0tEFOPumw0dPS0rDpfn5+HRZjjBw+fBib7u3tDb179xZYDX1KS0th165d2Lzg4GCYMmWKQertkNEfPnwIBQUF7dIVCgX4+PjoLcqYOHToEDZ95syZAisRB5s3b4bW1tZ26ebm5vDdd98ZrN4OGZ0UtgwbNoztP/IHCgsLIScnB5snR6M3NjbCli1bsHnz5s2Dfv36GazuDhmdFLb4+vrqJcbYIIUtAwYMgP79+wushj67du2CyspKbF5kZKRB6+bV6OPHj9dLjLFBMroce3OO42DdunXYvODgYMM/+LoO0zx69Ag7LKRQKNDTp095HxaSKmVlZcRJoitXrtCWJziJiYnEJRCpqakGr1/nHj0rKwubPnjwYOjatavOD5qxkpiYiJ0kcnV1BS8vLwqK6LJ27Vps+tChQwUJeXkzure3t95ijAlS2DJjxgxQKBQCq6FLdnY2Mdz929/+Jkh76Gz07OxsbPpLL72ktxhjoaamhnh2amhoqMBq6EOKzZ977jnBdlfmrUdnRv+d5ORk7Fixo6Oj7OYZ6uvrIS4uDpu3bNkysLCwEESHTkYvLy+HkpKSdulmZmbw4osv8iZK6pCWnk6fPh1MTU0FVkOX48ePQ3Nzc7t0KysrWLRokWA6dDI6KWwZOHAg+2zuD2RmZmLTg4ODBVZCH1JvHhYWJujghU5GJ4UtchxFINHY2Ag3btzA5o0cOVJgNXRpamqCY8eOYfPCwsIE1aKT0X/55RdsOovPf+fq1augVqvbpbu4uEDPnj0pKKLHiRMnsKsUbWxswN/fX1AtOhn9zp072PRBgwbxIsYYIIUtchx+jY+Px6YHBQVB586dBdWitdERQsR11S+88AJvgqQOM3obSqWS+E3xK6+8IrAaHYxeVlYG9fX17dJtbW2hR48evIqSMpcvX8amjxgxQmAldDlz5gzU1ta2S+/cuTNMnTpVcD1aG50Utnh4eMhupo9EdXU18VdPbu8xpNGWqVOngrW1tcBqdDA66QYacg2x1Lhy5Qo2vV+/frJap89xHCQkJGDzaIQtADz06Mzov8Pi8zZu374NT58+bZduYWEBQUFBFBTxFLow2iDF53Iz+qVLl7DpY8aMATs7O4HVtKG10R8+fIhNd3d3502M1GE9ehukB57mhJnWRi8tLcWmu7i48CZGypSVlWHXAZmamsKwYcMoKKIHqUenOfKkldHVajVUVFS0S1coFGxo8Vfu37+PTR84cKDgkyM0aWxsJO7g9vLLLwus5ne0MnpFRQVwHNcu3dHR0SCbzUiRR48eYdP79u0rsBK65OTkEJdA9OrVi4KiNrQyOilsoSlcbODCFoC2jwvkBClsodmbAzCj8wapR3d2dhZYCV2M0uhyW42nCZLR5daji3UJBOvReYKFLgBPnz7FbgVtYmJCfQmEVkavqanBpvO+h7WEYaELwIMHD7Dp/fr1AxsbG4HV/BmtjF5XV4dNt7W15VWMlGGhC/lXzdXVVWAl7dHK6LjluQBA/SkVC7W1tdg2srS0lNViLpLRxfCrxnp0HtAUtshpCbPkjU7q0ZnR22BhSxtGa3QWurTBRlzakLzRWeiiGTbi0obkjU46WInGJ1FiBLcTFQDI7lBhyRsdt6ALoG0rOgYZOb2INjU1QVVVVbt0c3NzUcy36HVEOoPxG+Xl5dj0nj17gokJfZvRV8AwCnBLcwHaNhMVA8zoDFnAjM6QBczoDFnAjM6QBVoZnTRMRnoBYTDEhlZGJ00MkSaSGAyxoZXRSWtaSEsDGAyxoZXRSWtaSIu9GAyxwXp0A0JaOmGMkGY/SeuAhEYvo7MevQ3S4q3Hjx8LrIQeTk5O2PSysjLsUfFCo1fownr0Nkjrzkmr+YwRa2tr7AOvVCqhsrKSgqI/w0IXHiAtQyWtUzdWSO0ghgdeK6OTfprF8KSKAVKPzozehmSMTtqRi7SxkdwgbeRUWloqq0k1yRtd041ktG1r0a1bt3bparVaVi+kzOgygIUvzOiygI28GIHRe/TogV3YVVFRASqVindRUoSNvJDboKioSGAl7dHK6Obm5uDo6NguHSGEPfJFjrDQBeD//u//sOm3b9+GpqYmgdX8Ga3Xo5PCFzH8LIkBFrq0zY7ienWVSgU5OTkUFP2O1kYnPa2kQ6rkBgtd2iCdbEE6IEAotDY66YRo0tHpcoPUo+fl5QmshC6kky1IR74IhdZGJ50QTTpRWm688MIL2Bf2/Px8Wc0gk3p0yRid1KMzo7dha2sL/fv3x+aRTpQ2RoYPH45dsltQUEB18owXo4thGaYYIP1sy8noNjY24Onpic2jGadrbXRnZ2fsCcjV1dWy+mnWhLe3NzZdTkYHEGf4orXRTUxMwN3dHZvHwpc2NBldTr96kjY6ADl8+eWXX3gRI3WGDBmCPTK+rKxMVuPppBDu/Pnz0NjYKLCaNnQy+sCBA7Hp2dnZvIiROp06dYLBgwdj8+QUvgwcOBDs7OzapTc2NkJKSgoFRToanXQoalZWFi9ijAH2Qtq2b35wcDA2Lz4+XmA1behkdC8vL2z69evXobW1lRdBUocUp9OeGRSaV155BZuelJQESqVSYDU6Gt3Z2Rn7tXdLSwvk5ubyJkrKkIx+5coVWW1/MWXKFOze6HV1dXDq1CnB9ehkdIVCQezVWfjSxoABA7Bb+NXU1MC9e/coKKKDlZUVBAUFYfPi4uIEVtOB3XRJcTp7IW3D1NSU2Ebnz58XWA1dwsLCsOkJCQnQ0tIiqBadjU7q0eX0svUsSC+kR44cEVgJXQIDA8HS0rJdenV1NZw9e1ZQLbz26GznrjamTJmCTT958qSs2sjW1pbYFkKHLzob3dXVFbv2Wq1Ww4ULF3gRJXXGjx8PXbt2bZeuVCrh+PHjFBTRgxS+HDx4UNCHXmejKxQK8PX1xeadO3dOb0HGgLm5OYSEhGDzDh8+LLAauoSEhGBni2tqamDHjh2C6ejQ0S4ko6elpeklxpiYOXMmNv3YsWNUxpFp0aVLF+JDHx0dLdgGTx0y+vjx47HpmZmZsopBNeHv748dR66trYXU1FQKiuixfPlybHp+fj4kJCQIoqFDRnd3d8d+OqZSqeDixYt6izIGrKysICAgAJsnt/Bl9OjRxJGo7777ThANHTK6pjidhS+/Exoaik0/cuSIrPZkVCgUxF794sWLkJGRYXANHT5+kRS+nDhxosNijI2goCAwMzNrl/748WPZ/fKFhYWBq6srNm/dunUGr7/DRvfz88OmZ2dny2rttSa6dOkCEyZMwObJLXwxMzOD9957D5sXFxcHhYWFBq2/w0b38PAgfohx9OjRDgsyNkjhy6FDh2T11REAwFtvvYU9PYXjOFi/fr1B69br5GjSsFFSUpI+lzUqpk+fjt0G48GDB9S3gBAaOzs7WLhwITZv69atht2jEelBWloaAoB2/zp16oTq6+v1ubRRMWbMGGw7zZ49m7Y0wSksLESmpqbY9njttdcMVq9ePfqYMWOIU92nT5/W59JGRXh4ODb9wIEDstuyrnfv3sT22Ldvn8FWeOpldDMzMwgMDMTmsfDldyIiIrAHnqlUKti8eTMFRXT58ssvwcLCApv33nvvGeQDFb2MDgAwbdo0bHpiYiLbO/1X7O3tISIiApu3detW6lsqC42bmxtxXD07O9swa2D0jX2qq6uRmZkZNuY6fvw4H+GVUXDnzh1sGwEA2rZtG215glNbW4t69eqFbQ8nJydUXV3Na3169+j29vYwadIkbN6ePXv0vbzR4OHhQfy0bP369bIbarS1tYU1a9Zg8yoqKuDLL7/kt0I+npbdu3djn0xra2s2+vIHTp06RezVz5w5Q1ue4KjVajRixAhse5ibm6O8vDze6uLF6HV1dcjKygoreM+ePXxUYRRwHIcGDhyIbadp06bRlkeF9PR04sMfEBCAOI7jpR5ejI4QQrNnz8aKDQwM5KsKo+CHH37AtpNCoUD37t2jLY8Kc+bMIZr9P//5Dy918Gb0Y8eOYYWampqi8vJyvqqRPA0NDcjBwQHbVu+99x5teVQoKSlB1tbWxMnHq1ev6l2H3i+jvzF58mTsyXVqtRpiY2P5qkbyWFlZweLFi7F527dvh9raWoEV0ee5556Df/7zn9g8pVIJs2bNgoaGBv0q4eGB/B/vvvsu9qn09PTkLdYyBoqKiojT4KtWraItjwotLS1o5MiRxBBm4cKFel2fV6NnZGQQhaalpfFZleSZNWsWcaSqpKSEtjwq5OfnIzs7O6KHDhw40OFr82p0juPQ4MGDsSJfffVVPquSPJo6hfnz59OWR43Y2Fhiu9jb26OCgoIOXZdXoyOE0Pfff48VaWZmhh49esR3dZJm+vTpxBGY7Oxs2vKoMX/+fKLZR40ahVpbW3W+Ju9Gr6urQ7a2tliRq1ev5rs6SZOXl0dcPuHn5yfb95r6+nr0wgsvEM2+cuVKna/Ju9ERIr+Uuri4dOhpNGbef/994g09cuQIbXnUyMnJQRYWFsS2iYmJ0el6BjF6bm4uUWB8fLwhqpQslZWVqGvXrti28vDwQEqlkrZEaqxfv57oI1NTU5ScnKz1tQxidIQQ8vX1xQocOXKkbH+SSWi6oevWraMtjxocx6Hg4GBi21hZWaFLly5pdS2DGf3AgQNEgWfPnjVUtZKkpaUF9evXD9tWXbt2RZWVlbQlUuPx48fI1dWV6CVHR0etFn8ZzOgtLS2od+/eWHH+/v6GqlayJCYmEm/msmXLaMujys2bN4nLJgAA9enTB5WWlmq8hsGMjhBCGzduJIq7cuWKIauWHBzHoQkTJhCHZm/fvk1bIlUuXryIOnfuTPTT0KFDUU1NDfHvDWr0hoYG1L17d6ywsLAwQ1YtSXJycpBCocC215QpU2T/bpOUlERcOgEAaOLEicS/NajREUIoKioKK0qhUKBbt24ZunrJsWDBAuKN3LRpE2151Nm2bRuxfQDIdja40auqqogTSBEREYauXnI8evSIuGTV0tIS5ebm0pZIndWrV4vP6Agh9OGHHxLHQlmv3p6vvvpKYyza3NxMWyJVOI5DS5YsEZ/RS0tLUadOnbDCQkNDhZAgKVpbWzUuWf3ggw9oS6SOSqVCoaGh4jI6QuRlAQCAMjIyhJIhGe7fv49sbGyIbXb69GnaEqnT1NSExo8fLy6jl5aWEmPP8ePHy35EAUdMTAzR6M7OzrKeSPqN+vp65O/vLx6jI4TQJ598QrxxuqxbkAscx6Hw8HBim4WFhbEOAiHU3NyMwsLCxGP0mpoa5OjoiL1pQ4YMQWq1Wkg5kqCyshK5uLgQzb59+3baEkVBa2urxlE8QY2OEELR0dHEm7Zr1y6h5UiC1NRU4kSSjY0Nunv3Lm2JokBTRym40Zubm1GfPn2wN61Xr14ap3HlzIoVK4gdxMsvv4xaWlpoSxQ1ghsdIYR27dpFvGnLly+nIUn0KJVK5OXlRWy3yMhI2hJFDRWjq1QqNGTIEOIk0o0bN2jIEj23bt3SuLBpw4YNtCWKFipGRwihn3/+mXjDxo0bx0YTCGzZsoXYbgqFAh0+fJi2RFFCzegIIfTmm28Sb9ru3btpShMtHMehkJAQYrtZWlqi9PR02jJFhwIhehtzV1RUQL9+/aCmpqZdXo8ePSAvLw/s7e0pKBM3VVVV4OPjAzdv3sTmOzo6QkZGBri5uQmsTLzwtvdiR3BycoKoqChsXnl5OaxcuVJgRdKga9eukJycDD179sTmP3nyBKZOnQpPnjwRWJmIof2TolKp0LBhw4g/xXLcIF9bsrKyiMsqANo2+2lsbKQtUxRQNzpCmjeD7927N6qtraUtUbQkJydr/OomNDQUqVQq2jKpY/r5559/LtzvBx4XFxd49OgRZGdnt8urqamByspK4inVcsfDwwN69uxJPJb+1q1bUFdXB1OmTBFYmcig/aT9RnV1tcY1HSkpKbQlipqVK1cS2w4AUHR0NG2JVBGN0RFC6MSJE8Qb5ezsjKqqqmhLFC0cx6HXX39d4xj7vn37aMukhqiMjhBCixcvJt4s9o2pZpRKJfLz8yO2n4mJCdq5cydtmVQQndFra2uJi74AAO3fv5+2RFFTVVWFPD09NfbsW7dupS1TcERndITalqWSbpStrS1blvoMHjx4QDyVWa4xuyiNjpDmb0yHDRuGmpqaaEsUNdnZ2cje3l6j2b/++mvaMoo/G4MAAAViSURBVAVDtEavr68nbrwJAGjp0qW0JYqeK1euaNyzEADQP/7xD1ksoBOt0RFC6Nq1a8jS0pLF63pw/fp15OTkpNHs8+fPN/oDGkRtdITIJy2zeF17bt++jZydnTWaPSgoiLZMg0J19aI2IITgjTfegL1792LzhwwZAhcuXABra2uBlUmL/Px8mDBhAjx48IBYRuRW0AvRGx0AoK6uDoYPHw537tzB5oeFhcGBAwfAxITqYkzR8/DhQ5g0aRLcvXsXmy8BK3QYSTjD1tYWDh48CJaWltj8+Ph4EMGSHdHj6uoKFy5cAG9vb9pShIdi2KQzmuJ1AJD1FLcu1NXVoYCAgHbtZ8xI6n/HcZzG/cMtLS21PrxJ7rS0tKC5c+cyo4sVpVKJxo0bRzR7r169UHFxMW2ZkoDjuD9t6W3MSOJl9K88efIERowYAQUFBdh8Ly8vOHfuHNjY2AisTJps3LgRIiMjQaVS0ZZiMCRpdACA3NxcGDVqFNTV1WHzJ0+eDElJSdCpUyeBlUmTCxcuwJgxY2jLMBiSNToAwLFjxyAkJIQ4LBYeHg779u0DU1NTgZUxxIYkhhdJBAUFwbfffkvMP3jwILzzzjtGPT7M0A5RfDOqD6NGjYKSkhLs96YAAFlZWaBSqWDChAkCK2OICUmHLr+hUqkgPDwcjhw5Qiyzdu1aiIyMFFAVQ0wYhdEBAJqbm2Hq1KmQlpZGLLNjxw6IiIgQUBVDLBiN0QEAamtrwc/PjxjGKBQK2LlzJ8yZM0dgZQzaGJXRAdr2cxw7dixxAZhCoYCYmBiYO3euwMoYNJH0qAsOJycnOHnyJDg7O2PzEUIQEREBMTExAitj0MTojA4A0Lt3bzh58iR069YNm48Qgnnz5sH3338vsDIGLYzS6AAAnp6ecObMGXBwcCCWWbJkCURHRwuoikELozU6QNvXR6mpqcSeHQAgMjISVq1axSaVjByjexnFce3aNZg4cSJUVlYSyyxatAg2bdoEZmZmAipjCIUsjA4A8Msvv8CkSZOgvLycWCY4OBhiY2PZ96dGiGyMDgBw584dmDhxIhQXFxPLeHt7w9GjR8HJyUlAZQxDIyujAwAUFBTAxIkTiWvZAQDc3NwgJSUF3N3dBVTGMCRG/TKK4/nnn4eLFy/CsGHDiGXu378Po0aNgoyMDAGVMQyJ7IwOANCzZ084d+6cxlMgnjx5Ar6+vrBz504BlTEMhSyNDtC2hUZSUhLMmzePWEapVEJERAQsW7YMWltbBVTH4BvZxeh/BSEEn3/+OaxatUpjuXHjxsHBgwfZS6pEkb3Rf+PHH3+EJUuWgFqtJpZxcXGBQ4cOyXMDIIkj29DlryxcuBASExPBzs6OWKa4uBjGjh3LFoRJENaj/4W8vDyYMWMG3L59W2O5iIgI2LBhA9ja2gqkjKEPzOgYamtrYe7cuZCQkKCxnLu7O+zdu5eFMhKAhS4Y7Ozs4NChQ7Bq1SpQKBTEcvfu3YPRo0fDN998AxzHCaiQoSusR38GR48ehddffx1qa2s1lps4cSLs2rULnnvuOYGUMXSBGV0L7ty5AzNnzoSbN29qLNetWzfYtm0bzJgxQyBlDG1hRteSxsZG+OCDD2DLli3PLMuaVHwwo+tIQkICzJ8/H54+fUosw5pUfDCjd4CSkhKYM2cOnD17FpvPmlR8sFGXDuDs7AynTp2Cr7/+mn2RJBFYj64nmZmZMGfOHMjLy/tfGmtS8cF6dD3x9vaGq1evwsqVK9n21CKG9eg8cvXqVViwYAFkZWXRlsL4C8zoPKNSqVjcLkKY0RmygMXoDFnAjM6QBczoDFnAjM6QBczoDFnw/8Rhiuzs0DQsAAAAAElFTkSuQmCC;" parent="1" vertex="1">
          <mxGeometry x="81.18" y="79" width="28.82" height="44" as="geometry" />
        </mxCell>
        <mxCell id="2aw78a-muhKt6A3NKjzl-27" value="movimento" style="rounded=0;whiteSpace=wrap;html=1;dashed=1;" parent="1" vertex="1">
          <mxGeometry x="6" y="90" width="70" height="20" as="geometry" />
        </mxCell>
      </root>
    </mxGraphModel>
  </diagram>
</mxfile>
